<svg width="600" height="600" xmlns="http://www.w3.org/2000/svg">

 <g>
  <title>Layer 1</title>
  <ellipse stroke="#000" ry="290.00001" rx="290.49994" id="svg_1" cy="300.99999" cx="299.74994" fill="#a9cea7"/>
  <g id="svg_35">
   <ellipse ry="7.5" rx="46" id="svg_25" cy="109.49998" cx="209.74992" stroke-width="0" stroke="#000" fill="#ffffff"/>
   <ellipse transform="rotate(-45 223.75 141.5)" ry="7.5" rx="46" id="svg_26" cy="141.49998" cx="223.74992" stroke-width="0" stroke="#000" fill="#ffffff"/>
   <ellipse transform="rotate(22 214.75 91.5)" ry="7.5" rx="46" id="svg_27" cy="91.49998" cx="214.74992" stroke-width="0" stroke="#000" fill="#ffffff"/>
   <ellipse transform="rotate(-22.5 213.75 127.5)" ry="7.5" rx="46" id="svg_28" cy="127.49998" cx="213.74992" stroke-width="0" stroke="#000" fill="#ffffff"/>
   <ellipse transform="rotate(-76 242.75 149.5)" ry="7.5" rx="46" id="svg_29" cy="149.49998" cx="242.74992" stroke-width="0" stroke="#000" fill="#ffffff"/>
   <ellipse ry="7.5" rx="46" id="svg_30" cy="109.49998" cx="209.74992" stroke-width="0" stroke="#000" fill="#ffffff"/>
   <ellipse transform="rotate(-45 223.75 141.5)" ry="7.5" rx="46" id="svg_31" cy="141.49998" cx="223.74992" stroke-width="0" stroke="#000" fill="#ffffff"/>
   <ellipse transform="rotate(22 214.75 91.5)" ry="7.5" rx="46" id="svg_32" cy="91.49998" cx="214.74992" stroke-width="0" stroke="#000" fill="#ffffff"/>
   <ellipse transform="rotate(-22.5 213.75 127.5)" ry="7.5" rx="46" id="svg_33" cy="127.49998" cx="213.74992" stroke-width="0" stroke="#000" fill="#ffffff"/>
   <ellipse transform="rotate(-76 242.75 149.5)" ry="7.5" rx="46" id="svg_34" cy="149.49998" cx="242.74992" stroke-width="0" stroke="#000" fill="#ffffff"/>
  </g>
  <g id="svg_46">
   <ellipse transform="rotate(-134 389.77 502.101)" ry="7.5" rx="46" id="svg_36" cy="502.10141" cx="389.77015" stroke-width="0" stroke="#000000" fill="#ffffff"/>
   <ellipse transform="rotate(-179 403.064 469.802)" ry="7.5" rx="46" id="svg_37" cy="469.8016" cx="403.06389" stroke-width="0" stroke="#000000" fill="#ffffff"/>
   <ellipse transform="rotate(-112 373.349 511.009)" ry="7.5" rx="46" id="svg_38" cy="511.00856" cx="373.34874" stroke-width="0" stroke="#000000" fill="#ffffff"/>
   <ellipse transform="rotate(-156.5 399.94 486.72)" ry="7.5" rx="46" id="svg_39" cy="486.72021" cx="399.93964" stroke-width="0" stroke="#000000" fill="#ffffff"/>
   <ellipse transform="rotate(-210 395.62 450.577)" ry="7.5" rx="46" id="svg_40" cy="450.5768" cx="395.6201" stroke-width="0" stroke="#000000" fill="#ffffff"/>
   <ellipse transform="rotate(-134 389.77 502.101)" ry="7.5" rx="46" id="svg_41" cy="502.10141" cx="389.77015" stroke-width="0" stroke="#000000" fill="#ffffff"/>
   <ellipse transform="rotate(-179 403.064 469.802)" ry="7.5" rx="46" id="svg_42" cy="469.8016" cx="403.06389" stroke-width="0" stroke="#000000" fill="#ffffff"/>
   <ellipse transform="rotate(-112 373.349 511.009)" ry="7.5" rx="46" id="svg_43" cy="511.00856" cx="373.34874" stroke-width="0" stroke="#000000" fill="#ffffff"/>
   <ellipse transform="rotate(-156.5 399.94 486.72)" ry="7.5" rx="46" id="svg_44" cy="486.72021" cx="399.93964" stroke-width="0" stroke="#000000" fill="#ffffff"/>
   <ellipse transform="rotate(-210 395.62 450.577)" ry="7.5" rx="46" id="svg_45" cy="450.5768" cx="395.6201" stroke-width="0" stroke="#000000" fill="#ffffff"/>
  </g>
  <g id="svg_70">
   <path d="m362.74991,476.33331c-3,-1 -9.02475,-4.93918 -14,-7c-7.03607,-2.91443 -10.54916,-5.95517 -14,-7c-2.87128,-0.86935 -8,-2 -11,-2c-6,0 -10,-1 -14,-1c-4,0 -10,1 -13,1c-3,0 -6.86829,2.28857 -11,4c-2.92157,1.21014 -12.92767,4.23172 -19,6c-3.95868,1.15277 -8.05255,2.76605 -13,4c-10.12997,2.52655 -16.08743,3.79395 -21,6c-4.07965,1.83203 -9,4 -16,6c-7,2 -12.133,3.56952 -16,5c-4.19434,1.55161 -8.02249,2.63345 -11,3c-4.09222,0.50378 -9,2 -12,2c-3,0 -4,0 -6,0c-2,0 -2,0 -4,0c-2,0 -3.71021,-2.04291 -4,-3c-1.04483,-3.45084 -5.48624,-4.82376 -5.99998,-7c-0.4595,-1.9465 -1,-4 -2,-6c-1,-2 -1.77025,-5.02676 -2,-6c-0.51375,-2.17624 -2,-3 -4,-6c-2,-3 -4,-5 -6,-8c0,0 -1.5387,-2.60645 -4,-4c-3.58792,-2.03146 -6.01498,-1.75565 -8,-2c-4.09221,-0.50378 -6,-1 -8,-1c-3,0 -7.96329,-1.1604 -12,-2c-5.95532,-1.23862 -8.88152,-1.19028 -12,-3c-1.93399,-1.12234 -5.3851,-2.37201 -8,-6c-3.30762,-4.58908 -6.19028,-6.88153 -8,-10c-2.24469,-3.86798 -4.32144,-6.80902 -6,-10c-2.50705,-4.76599 -4,-13 -4,-18c0,-5 -0.22121,-11.00613 0,-15c0.50076,-9.04153 1.24358,-15.07217 2,-19c1.01837,-5.28799 4.73145,-11.0769 6,-15c1.65685,-5.12396 3.49623,-12.90778 4,-17c0.48874,-3.97003 0,-8 0,-16c0,-4 0.4305,-11.133 -1,-15c-1.55159,-4.19434 -4,-9 -10,-23c-3,-7 -4.3851,-12.37201 -7,-16c-3.30762,-4.58908 -6.79488,-6.22021 -10,-9c-3.77727,-3.276 -7.69344,-4.45879 -9,-4.99998c-2.77164,-1.14806 -4.07843,-0.78986 -7,-2c-2.06586,-0.85571 -3.97899,-1.06541 -7,-2c-6.9549,-2.1516 -10.82375,-3.48625 -13,-4c-1.9465,-0.4595 -4,0 -5,0c-1,0 -1,0 -2,0l-1,0l0,0" id="svg_65" stroke-width="0" stroke="#000" fill="#ffffff"/>
   <path d="m367.74991,467.33331c-3,-1 -9.02475,-4.93918 -14,-7c-7.03607,-2.91443 -10.54916,-5.95517 -14,-7c-2.87128,-0.86935 -8,-2 -11,-2c-6,0 -10,-1 -14,-1c-4,0 -10,1 -13,1c-3,0 -6.86829,2.28858 -11,4c-2.92157,1.21015 -12.92767,4.23172 -19,6c-3.95868,1.15277 -8.05255,2.76606 -13,4c-10.12997,2.52655 -16.08743,3.79395 -21,6c-4.07965,1.83203 -9,4 -16,6c-7,2 -12.133,3.56952 -16,5c-4.19434,1.55161 -8.02249,2.63346 -11,3c-4.09222,0.50379 -9,2 -12,2c-3,0 -4,0 -6,0c-2,0 -2,0 -4,0c-2,0 -3.71021,-2.0429 -4,-3c-1.04483,-3.45083 -5.48624,-4.82376 -5.99999,-7c-0.4595,-1.9465 -1,-4 -2,-6c-1,-2 -1.77024,-5.02676 -2,-6c-0.51374,-2.17624 -2,-3 -4,-6c-2,-3 -4,-5 -6,-8c0,0 -1.53869,-2.60644 -4,-4c-3.58792,-2.03146 -6.01498,-1.75564 -8,-2c-4.0922,-0.50378 -6,-1 -8,-1c-3,0 -7.96328,-1.1604 -12,-2c-5.95532,-1.23861 -8.88151,-1.19027 -12,-3c-1.93399,-1.12234 -5.3851,-2.37201 -8,-6c-3.30761,-4.58908 -6.19027,-6.88153 -8,-10c-2.24469,-3.86798 -4.32144,-6.80902 -6,-10c-2.50704,-4.76599 -4,-13 -4,-18c0,-5 -0.2212,-11.00613 0,-15c0.50077,-9.04153 1.24358,-15.07217 2,-19c1.01838,-5.28799 4.73145,-11.0769 6,-15c1.65685,-5.12396 3.49624,-12.90777 4,-17c0.48874,-3.97003 0,-8 0,-16c0,-4 0.4305,-11.13299 -1,-15c-1.55159,-4.19433 -4,-9 -10,-23c-3,-7 -4.3851,-12.37201 -7,-16c-3.30761,-4.58908 -6.79487,-6.22021 -10,-9c-3.77726,-3.276 -7.69343,-4.45878 -9,-4.99998c-2.77163,-1.14806 -4.07843,-0.78986 -7,-2c-2.06585,-0.85571 -3.97898,-1.06542 -7,-2c-6.9549,-2.1516 -10.82374,-3.48625 -13,-4c-1.94649,-0.4595 -4,0 -5,0c-1,0 -1,0 -2,0l-1,0l0,0" id="svg_66" stroke-width="0" stroke="#000" fill="#a9cea7"/>
  </g>
  <g transform="rotate(180 422.25 204.231)" stroke="null" id="svg_73">
   <path stroke="#000" d="m585.99002,304.95365c-2.85593,-0.91898 -8.59136,-4.53902 -13.32768,-6.43288c-6.69818,-2.67831 -10.04256,-5.4727 -13.32768,-6.43288c-2.73339,-0.79892 -7.61582,-1.83797 -10.47175,-1.83797c-5.71186,0 -9.51977,-0.91898 -13.32768,-0.91898c-3.80791,0 -9.51977,0.91898 -12.37571,0.91898c-2.85593,0 -6.53846,2.10317 -10.47175,3.67593c-2.78127,1.11211 -12.30685,3.88888 -18.08757,5.5139c-3.76857,1.05938 -7.66585,2.54196 -12.37571,3.67593c-9.6435,2.32186 -15.31487,3.48657 -19.99153,5.5139c-3.88373,1.6836 -8.5678,3.67593 -15.23164,5.5139c-6.66384,1.83797 -11.55034,3.28033 -15.23164,4.59491c-3.99292,1.4259 -7.63723,2.4201 -10.47175,2.75695c-3.8957,0.46297 -8.5678,1.83797 -11.42373,1.83797c-2.85593,0 -3.80791,0 -5.71186,0c-1.90395,0 -1.90395,0 -3.80791,0c-1.90395,0 -3.53204,-1.87739 -3.80791,-2.75695c-0.99465,-3.17125 -5.22278,-4.43295 -5.71186,-6.43288c-0.43743,-1.7888 -0.95198,-3.67593 -1.90395,-5.5139c-0.95198,-1.83797 -1.68523,-4.61951 -1.90395,-5.5139c-0.48907,-1.99993 -1.90395,-2.75695 -3.80791,-5.5139c-1.90395,-2.75695 -3.80791,-4.59491 -5.71186,-7.35186c0,0 -1.4648,-2.39527 -3.80791,-3.67593c-3.41562,-1.86688 -5.72613,-1.6134 -7.61582,-1.83797c-3.89568,-0.46297 -5.71186,-0.91898 -7.61582,-0.91898c-2.85593,0 -7.58086,-1.06639 -11.42373,-1.83797c-5.66933,-1.13826 -8.455,-1.09384 -11.42373,-2.75695c-1.84111,-1.03141 -5.12649,-2.17984 -7.61582,-5.5139c-3.14877,-4.21729 -5.893,-6.32401 -7.61582,-9.18983c-2.13689,-3.55461 -4.11391,-6.25737 -5.71186,-9.18983c-2.38665,-4.37986 -3.80791,-11.94678 -3.80791,-16.54169c0,-4.59491 -0.21058,-10.11444 0,-13.78474c0.47672,-8.30901 1.18386,-13.85107 1.90395,-17.46067c0.96947,-4.85957 4.50423,-10.17948 5.71186,-13.78474c1.57728,-4.70883 3.32834,-11.86202 3.80791,-15.62271c0.46527,-3.64839 0,-7.35186 0,-14.70372c0,-3.67593 0.40983,-10.23103 -0.95198,-13.78474c-1.47708,-3.85452 -3.80791,-8.27085 -9.51977,-21.1366c-2.85593,-6.43288 -4.17452,-11.36966 -6.66384,-14.70372c-3.14877,-4.21729 -6.46856,-5.71627 -9.51977,-8.27085c-3.59587,-3.01059 -7.32397,-4.09754 -8.5678,-4.5949c-2.63853,-1.05505 -3.88257,-0.72587 -6.66384,-1.83797c-1.96664,-0.78638 -3.7879,-0.9791 -6.66384,-1.83797c-6.62091,-1.97728 -10.30396,-3.2038 -12.37571,-3.67593c-1.85301,-0.42227 -3.80791,0 -4.75989,0c-0.95198,0 -0.95198,0 -1.90395,0l-0.95198,0l0,0" id="svg_71" stroke-width="0" fill="#ffffff"/>
   <path stroke="#000" d="m590.74991,296.68281c-2.85593,-0.91898 -8.59136,-4.53902 -13.32768,-6.43288c-6.69818,-2.67831 -10.04256,-5.4727 -13.32768,-6.43288c-2.73339,-0.79892 -7.61582,-1.83797 -10.47175,-1.83797c-5.71186,0 -9.51977,-0.91898 -13.32768,-0.91898c-3.80791,0 -9.51977,0.91898 -12.37571,0.91898c-2.85593,0 -6.53846,2.10317 -10.47175,3.67593c-2.78127,1.11211 -12.30685,3.88888 -18.08757,5.5139c-3.76857,1.05938 -7.66585,2.54196 -12.37571,3.67593c-9.6435,2.32186 -15.31487,3.48657 -19.99153,5.5139c-3.88373,1.6836 -8.5678,3.67593 -15.23164,5.5139c-6.66384,1.83797 -11.55034,3.28033 -15.23164,4.59491c-3.99292,1.4259 -7.63723,2.4201 -10.47175,2.75695c-3.8957,0.46297 -8.5678,1.83797 -11.42373,1.83797c-2.85593,0 -3.80791,0 -5.71186,0c-1.90395,0 -1.90395,0 -3.80791,0c-1.90395,0 -3.53204,-1.87739 -3.80791,-2.75695c-0.99465,-3.17125 -5.22278,-4.43295 -5.71186,-6.43288c-0.43743,-1.7888 -0.95198,-3.67593 -1.90395,-5.5139c-0.95198,-1.83797 -1.68523,-4.61951 -1.90395,-5.5139c-0.48907,-1.99993 -1.90395,-2.75695 -3.80791,-5.5139c-1.90395,-2.75695 -3.80791,-4.59491 -5.71186,-7.35186c0,0 -1.4648,-2.39527 -3.80791,-3.67593c-3.41562,-1.86688 -5.72613,-1.6134 -7.61582,-1.83797c-3.89568,-0.46297 -5.71186,-0.91898 -7.61582,-0.91898c-2.85593,0 -7.58086,-1.06639 -11.42373,-1.83797c-5.66933,-1.13826 -8.455,-1.09384 -11.42373,-2.75695c-1.84111,-1.03141 -5.12649,-2.17984 -7.61582,-5.5139c-3.14877,-4.21729 -5.893,-6.32401 -7.61582,-9.18983c-2.13689,-3.55461 -4.11391,-6.25737 -5.71186,-9.18983c-2.38665,-4.37986 -3.80791,-11.94678 -3.80791,-16.54169c0,-4.59491 -0.21058,-10.11444 0,-13.78474c0.47672,-8.30901 1.18386,-13.85107 1.90395,-17.46067c0.96947,-4.85957 4.50423,-10.17948 5.71186,-13.78474c1.57728,-4.70883 3.32834,-11.86202 3.80791,-15.62271c0.46527,-3.64839 0,-7.35186 0,-14.70372c0,-3.67593 0.40983,-10.23103 -0.95198,-13.78474c-1.47708,-3.85452 -3.80791,-8.27085 -9.51977,-21.1366c-2.85593,-6.43288 -4.17452,-11.36966 -6.66384,-14.70372c-3.14877,-4.21729 -6.46856,-5.71627 -9.51977,-8.27085c-3.59587,-3.01059 -7.32397,-4.09754 -8.5678,-4.5949c-2.63853,-1.05505 -3.88257,-0.72587 -6.66384,-1.83797c-1.96664,-0.78638 -3.7879,-0.9791 -6.66384,-1.83797c-6.62091,-1.97728 -10.30396,-3.2038 -12.37571,-3.67593c-1.85301,-0.42227 -3.80791,0 -4.75989,0c-0.95198,0 -0.95198,0 -1.90395,0l-0.95198,0l0,0" id="svg_72" stroke-width="0" fill="#a9cea7"/>
  </g>
  <text transform="matrix(1.2425 0 0 1.24619 -87.3342 -78.1166)" stroke="#000" font-style="normal" font-weight="normal" xml:space="preserve" text-anchor="start" font-family="sans-serif" font-size="250" stroke-width="0" id="svg_4" y="384.37586" x="154.55173" fill="#000000">LH</text>
 </g>
</svg>